<?xml version="1.0" encoding="UTF-8" standalone="no"?>
<!-- Created with Inkscape (http://www.inkscape.org/) -->

<svg
   xmlns:dc="http://purl.org/dc/elements/1.1/"
   xmlns:cc="http://creativecommons.org/ns#"
   xmlns:rdf="http://www.w3.org/1999/02/22-rdf-syntax-ns#"
   xmlns:svg="http://www.w3.org/2000/svg"
   xmlns="http://www.w3.org/2000/svg"
   xmlns:sodipodi="http://sodipodi.sourceforge.net/DTD/sodipodi-0.dtd"
   xmlns:inkscape="http://www.inkscape.org/namespaces/inkscape"
   width="1000"
   height="282.50272"
   id="svg3650"
   version="1.1"
   inkscape:version="0.48.5 r10040"
   sodipodi:docname="New document 4">
  <defs
     id="defs3652">
    <linearGradient
       x1="0"
       y1="0"
       x2="1"
       y2="0"
       gradientUnits="userSpaceOnUse"
       gradientTransform="matrix(-2.3e-6,51.714462,51.714462,2.3e-6,306.08838,7.6728516)"
       spreadMethod="pad"
       id="linearGradient3021">
      <stop
         style="stop-opacity:1;stop-color:#730b0e"
         offset="0"
         id="stop3023" />
      <stop
         style="stop-opacity:1;stop-color:#ef2f2c"
         offset="1"
         id="stop3025" />
    </linearGradient>
  </defs>
  <sodipodi:namedview
     id="base"
     pagecolor="#ffffff"
     bordercolor="#666666"
     borderopacity="1.0"
     inkscape:pageopacity="0.0"
     inkscape:pageshadow="2"
     inkscape:zoom="0.56464844"
     inkscape:cx="623.25222"
     inkscape:cy="-176.01431"
     inkscape:document-units="px"
     inkscape:current-layer="layer1"
     showgrid="false"
     fit-margin-left="0.5"
     fit-margin-bottom="0.5"
     fit-margin-top="0.5"
     fit-margin-right="0.5"
     inkscape:window-width="1046"
     inkscape:window-height="1023"
     inkscape:window-x="864"
     inkscape:window-y="-9"
     inkscape:window-maximized="0" />
  <metadata
     id="metadata3655">
    <rdf:RDF>
      <cc:Work
         rdf:about="">
        <dc:format>image/svg+xml</dc:format>
        <dc:type
           rdf:resource="http://purl.org/dc/dcmitype/StillImage" />
        <dc:title></dc:title>
      </cc:Work>
    </rdf:RDF>
  </metadata>
  <g
     inkscape:label="Layer 1"
     inkscape:groupmode="layer"
     id="layer1"
     transform="translate(-103.88363,-80.318421)">
    <g
       id="g3009"
       transform="matrix(5.62443,0,0,-5.62443,-1117.6869,408.3796)">
      <g
         id="g3011">
        <g
           id="g3017">
          <g
             id="g3019">
            <path
               d="m 226.258,58.239 c -0.102,-0.002 -0.2,-0.012 -0.266,-0.024 l 0,0 c -2.174,-0.172 -3.864,-1.913 -3.961,-4.068 l 0,0 -0.009,-0.086 -0.011,-12.314 -4.662,-3.278 3.664,-2.709 -3.734,-2.547 3.684,-2.577 -3.68,-2.508 4.728,-3.325 0.011,-12.361 c 0,-0.066 0.003,-0.127 0.009,-0.193 l 0,0 c 0.098,-2.241 1.892,-4 4.136,-4.057 l 0,0 0.024,-0.003 159.706,0 c 2.223,0.012 4.042,1.707 4.231,3.94 l 0,0 c 0.013,0.095 0.024,0.187 0.026,0.313 l 0,0 0,12.207 4.677,3.279 -3.667,2.712 3.733,2.545 -3.682,2.576 3.682,2.512 -4.743,3.322 0,12.387 c -0.002,0.099 -0.013,0.192 -0.026,0.284 l 0,0 c -0.179,2.123 -1.852,3.783 -3.939,3.945 l 0,0 c -0.099,0.016 -0.198,0.026 -0.317,0.028 l 0,0 -159.614,0 z"
               style="fill:url(#linearGradient3021);stroke:none"
               id="path3027"
               inkscape:connector-curvature="0" />
          </g>
        </g>
      </g>
    </g>
    <g
       id="g3037"
       transform="matrix(5.62443,0,0,-5.62443,154.9776,88.797822)">
      <path
         d="m 0,0 c -0.059,0 -0.113,-0.014 -0.171,-0.019 -1.459,-0.116 -2.618,-1.296 -2.657,-2.769 -0.001,-0.025 -0.007,-0.05 -0.007,-0.075 l -0.012,-12.947 -3.653,-2.57 3.669,-2.714 0,-0.027 -3.669,-2.501 3.669,-2.568 0,-0.019 -3.669,-2.502 3.653,-2.57 0.012,-13.098 c 0,-0.027 0.006,-0.053 0.007,-0.077 0.042,-1.525 1.278,-2.748 2.812,-2.757 l 0.016,0 159.594,0.004 c 0.006,0 0.015,-0.004 0.019,-0.004 1.494,0.009 2.702,1.174 2.824,2.642 0.006,0.066 0.021,0.127 0.023,0.192 l 0,12.946 3.668,2.572 -3.668,2.712 0,0.026 3.668,2.502 -3.668,2.566 0,0.021 3.668,2.502 -3.668,2.569 0,13.1 c -0.002,0.064 -0.017,0.126 -0.023,0.189 -0.118,1.418 -1.249,2.543 -2.669,2.655 C 159.709,-0.014 159.656,0 159.598,0 L 0,0 z"
         style="fill:#cf181f;fill-opacity:1;fill-rule:nonzero;stroke:none"
         id="path3039"
         inkscape:connector-curvature="0" />
    </g>
    <g
       id="g3041"
       transform="matrix(5.62443,0,0,-5.62443,327.68697,281.45646)">
      <path
         d="m 0,0 -1.235,-1.346 0.479,-0.462 0.882,0.973 0,-3.445 0.727,0 0,4.28 L 0,0 z"
         style="fill:#ffffff;fill-opacity:1;fill-rule:nonzero;stroke:none"
         id="path3043"
         inkscape:connector-curvature="0" />
    </g>
    <g
       id="g3045"
       transform="matrix(5.62443,0,0,-5.62443,424.62627,247.25376)">
      <path
         d="m 0,0 c -0.36,-1.196 -1.587,-3.62 -2.426,-4.189 -0.987,-0.296 -2.302,-0.717 -4.487,-0.717 -2.232,0 -4.162,0.362 -5.743,1.085 -0.214,0.097 -0.422,0.201 -0.621,0.314 -2.778,1.528 -4.318,4.315 -4.318,8.356 0,3.141 1.425,6.103 4.318,7.789 0.189,0.111 0.384,0.216 0.589,0.316 0.01,0.005 0.021,0.011 0.032,0.016 1.61,0.799 3.574,1.241 6.042,1.241 2.332,0 4.727,-0.418 6.074,-0.478 -0.179,-0.927 -0.48,-3.411 -0.48,-4.995 -0.118,-0.18 -1.044,-0.243 -1.103,-0.092 -0.303,1.739 -0.511,2.875 -1.708,3.592 -1.107,0.627 -2.303,0.779 -3.499,0.779 -2.955,0 -5.051,-2.129 -5.326,-6.791 l 0,-1.991 c 0.252,-3.785 2.122,-7.526 6.583,-7.526 0.866,0 2.003,0.121 2.901,0.929 0.746,0.658 1.614,1.853 2.273,2.99 C -0.658,0.57 -0.152,0.27 0,0"
         style="fill:#ffffff;fill-opacity:1;fill-rule:nonzero;stroke:none"
         id="path3047"
         inkscape:connector-curvature="0" />
    </g>
    <g
       id="g3049"
       transform="matrix(5.62443,0,0,-5.62443,1020.0853,245.06248)">
      <path
         d="m 0,0 c -0.149,-0.687 -0.838,-3.382 -1.377,-4.399 -0.119,-0.269 -0.269,-0.476 -1.557,-0.476 -2.511,0 -5.382,0.118 -8.554,0.118 -1.587,0 -3.77,-0.092 -5.387,-0.092 -0.061,0.242 -0.061,0.868 0,1.017 1.048,0.151 1.795,0.272 2.215,0.39 0.538,0.149 0.837,0.479 0.837,1.437 0.088,1.704 0.088,3.771 0.088,7.212 0,2.211 0,4.545 -0.088,5.622 -0.06,0.839 -0.269,1.077 -0.837,1.258 -0.45,0.148 -0.985,0.211 -1.557,0.268 -0.121,0.149 -0.061,0.928 0.059,1.018 1.168,0 3.054,-0.09 4.52,-0.09 l 6.013,0 c 1.167,0 2.843,0.03 3.89,0.181 0.03,0 0.089,-0.061 0.089,-0.12 -0.211,-0.928 -0.329,-2.844 -0.42,-4.52 -0.177,-0.12 -0.985,-0.178 -1.137,-0.089 -0.177,1.107 -0.329,1.736 -0.567,2.214 -0.3,0.599 -0.807,0.75 -1.225,0.78 -0.779,0.088 -3.681,0.088 -4.159,0.028 -0.152,-0.028 -0.3,-0.39 -0.3,-0.538 -0.031,-1.916 0,-3.77 0,-5.805 0,-0.121 0.117,-0.238 0.207,-0.238 0.779,0 2.843,-0.03 3.802,0.031 0.627,0.027 0.899,0.298 1.077,1.046 0.089,0.298 0.151,0.687 0.239,1.076 0.15,0.089 1.047,0.061 1.195,-0.059 -0.029,-0.719 -0.148,-1.944 -0.148,-2.902 0,-0.807 0.031,-2.183 0.06,-3.022 C -3.171,1.257 -4.039,1.226 -4.187,1.317 L -4.49,2.543 c -0.179,0.449 -0.417,0.777 -1.014,0.865 -0.54,0.061 -2.844,0.061 -3.743,0.061 -0.09,0 -0.207,-0.209 -0.207,-0.268 l 0,-5.265 c 0,-0.479 0.27,-0.899 0.628,-0.989 0.567,-0.12 2.035,-0.208 3.71,-0.208 1.346,0 1.762,0.119 2.423,0.896 0.57,0.659 1.134,1.707 1.587,2.755 C -0.897,0.418 -0.121,0.149 0,0"
         style="fill:#ffffff;fill-opacity:1;fill-rule:nonzero;stroke:none"
         id="path3051"
         inkscape:connector-curvature="0" />
    </g>
    <g
       id="g3053"
       transform="matrix(5.62443,0,0,-5.62443,922.82199,239.6799)">
      <path
         d="m 0,0 c -0.092,-0.748 -1.108,-4.308 -1.825,-5.444 -0.092,-0.242 -0.45,-0.421 -1.767,-0.421 -2.454,0 -5.653,0.151 -7.991,0.151 -2.332,0 -3.468,-0.092 -4.576,-0.092 -0.118,0.181 -0.118,0.899 0,1.017 0.959,0.121 1.168,0.151 1.736,0.301 0.568,0.18 0.749,0.509 0.837,1.228 0.059,0.658 0.119,3.918 0.119,6.938 0,3.47 0,5.057 -0.06,6.225 -0.029,0.599 -0.181,1.046 -0.866,1.227 -0.359,0.119 -0.988,0.18 -1.586,0.268 -0.12,0.181 -0.028,0.957 0.092,1.018 1.225,0 2.032,-0.09 4.487,-0.09 2.155,0 3.32,0.061 4.429,0.09 0.118,-0.118 0.089,-0.869 0,-1.018 -0.78,-0.12 -1.139,-0.179 -1.438,-0.268 -0.656,-0.209 -0.747,-0.51 -0.779,-1.287 -0.029,-0.479 -0.057,-2.451 -0.057,-5.445 -0.031,-3.023 0.028,-6.732 0.089,-7.509 0.029,-0.538 0.331,-0.839 0.567,-0.928 0.687,-0.15 2.423,-0.179 3.8,-0.15 0.569,0 1.108,0.21 1.673,0.988 0.633,0.806 1.529,2.425 2.036,3.59 C -0.929,0.478 -0.061,0.209 0,0"
         style="fill:#ffffff;fill-opacity:1;fill-rule:nonzero;stroke:none"
         id="path3055"
         inkscape:connector-curvature="0" />
    </g>
    <g
       id="g3057"
       transform="matrix(5.62443,0,0,-5.62443,692.12191,266.6153)">
      <path
         d="m 0,0 c -0.329,0 -1.408,0.181 -1.944,0.779 -0.179,0.21 -0.42,0.63 -0.42,0.959 -0.09,1.375 -0.059,4.099 -0.059,6.252 0,0.12 0.088,0.179 0.149,0.179 C -2.032,8.2 -1.675,8.2 -1.345,8.2 1.495,8.2 3.053,6.615 3.053,4.07 3.053,1.438 1.825,0 0,0 m -2.364,15.44 c 0.029,0.149 0.123,0.36 0.21,0.39 0.182,0.059 0.45,0.119 0.658,0.119 2.634,0 3.769,-1.586 3.769,-3.77 0,-1.167 -0.358,-1.975 -1.135,-2.453 -0.3,-0.18 -1.106,-0.271 -2.006,-0.271 -0.656,0 -1.137,0 -1.406,0.032 -0.061,0 -0.149,0.059 -0.149,0.148 0,1.975 0,4.937 0.059,5.805 M -18.85,7.062 c -0.27,-0.029 -1.017,-0.029 -1.976,-0.029 -0.838,0 -1.374,0 -1.706,0.029 -0.06,0 -0.118,0.121 -0.088,0.239 0.478,1.379 1.254,3.829 1.855,5.505 0.03,0.031 0.089,0 0.118,0 0.597,-1.645 1.587,-4.666 1.884,-5.592 0,-0.062 -0.027,-0.152 -0.087,-0.152 M -36.505,8.62 c -0.477,-0.268 -1.945,-0.389 -3.23,-0.332 -0.121,0 -0.18,0.118 -0.18,0.241 0,3.95 0,6.163 0.059,6.822 0,0.118 0.09,0.359 0.21,0.449 0.208,0.089 0.598,0.119 0.808,0.119 2.305,0 3.68,-1.736 3.68,-4.22 0,-1.884 -0.568,-2.66 -1.347,-3.079 M 3.022,9.188 c -0.058,0.03 -0.058,0.147 0,0.179 2.155,0.599 3.322,2.123 3.322,3.739 0,3.413 -3.054,4.099 -5.865,4.099 -0.808,0 -2.933,-0.09 -5.268,-0.09 -2.272,0 -3.56,0.09 -4.277,0.09 -0.089,-0.06 -0.12,-0.869 0,-1.018 0.478,-0.029 1.11,-0.12 1.558,-0.298 0.54,-0.179 0.747,-0.48 0.806,-1.287 0.061,-1.617 0.061,-3.38 0.061,-6.433 0,-3.349 0,-5.653 -0.061,-6.431 C -6.792,0.9 -7.001,0.539 -7.45,0.39 -7.703,0.297 -7.97,0.228 -8.3,0.164 -8.593,0.108 -8.937,0.057 -9.364,0 c -0.017,-0.01 -0.053,-0.012 -0.062,0 -0.44,0.071 -0.798,0.139 -1.096,0.218 -1.207,0.325 -1.464,0.875 -2.254,2.867 -1.048,2.663 -3.383,9.454 -4.43,12.355 -0.179,0.479 -0.387,1.256 -0.509,1.736 -0.417,-0.031 -0.896,-0.061 -1.524,-0.061 -0.541,0 -1.076,0.03 -1.526,0.061 -0.09,-0.51 -0.391,-1.493 -0.601,-2.094 -0.748,-2.156 -3.558,-9.815 -5.204,-13.733 -0.298,-0.69 -0.568,-1.048 -1.197,-1.019 -0.687,-0.029 -1.496,0.449 -1.914,0.899 -1.438,1.555 -4.16,5.535 -4.728,6.639 -0.03,0.063 0,0.211 0.029,0.242 1.976,0.778 3.502,2.186 3.502,4.517 0,2.633 -1.916,4.578 -5.686,4.578 -1.765,0 -3.413,-0.09 -5.686,-0.09 -1.137,0 -3.47,0.09 -4.188,0.09 -0.148,-0.06 -0.209,-0.837 -0.089,-1.018 0.569,-0.057 1.169,-0.179 1.527,-0.268 0.538,-0.119 0.808,-0.539 0.835,-1.347 0.062,-1.314 0.062,-3.139 0.062,-6.043 0,-1.854 -0.029,-5.893 -0.089,-6.822 C -44.223,0.779 -44.434,0.39 -45.06,0.24 -45.451,0.151 -45.899,0.062 -46.438,0 c -0.148,-0.118 -0.089,-0.896 0.03,-1.017 0.628,0 1.974,0.092 4.459,0.092 2.034,0 3.531,-0.092 4.456,-0.092 0.18,0.061 0.213,0.989 0.06,1.017 -0.775,0.121 -1.046,0.151 -1.584,0.301 -0.629,0.18 -0.808,0.538 -0.839,1.406 -0.029,1.286 -0.059,3.143 -0.059,4.998 0,0.059 0.059,0.18 0.12,0.18 l 0.717,0 c 0.42,-0.031 0.66,-0.21 0.87,-0.538 0.957,-1.587 2.393,-4.101 3.59,-5.657 0.867,-1.077 1.913,-1.733 3.68,-1.707 1.136,0 3.74,0.092 4.667,0.092 2.632,0 3.111,-0.092 3.979,-0.092 0.059,0.181 0.15,0.899 0.092,1.017 -0.659,0.121 -1.02,0.181 -1.499,0.301 -0.748,0.149 -0.807,0.568 -0.807,0.988 -0.029,0.508 0.598,2.242 1.109,3.709 0.058,0.12 0.237,0.269 0.327,0.269 0.42,0.029 1.227,0.029 2.394,0.029 0.809,0 1.826,0.031 2.275,0 0.148,0 0.269,-0.147 0.298,-0.209 0.418,-1.046 1.136,-3.11 1.376,-4.098 0.031,-0.089 0.031,-0.389 -0.268,-0.568 -0.27,-0.181 -0.93,-0.3 -1.498,-0.421 -0.088,-0.118 -0.029,-0.836 0.031,-1.017 1.106,0 2.065,0.092 4.577,0.092 1.483,0 2.544,-0.038 3.318,-0.064 0.431,-0.014 1.832,-0.032 2.233,-0.035 2.347,-0.032 6.135,-0.141 7.256,-0.141 1.765,0 3.772,0.269 5.118,0.867 2.394,1.077 3.591,2.693 3.591,5.027 0,2.634 -1.916,3.92 -4.609,4.459"
         style="fill:#ffffff;fill-opacity:1;fill-rule:nonzero;stroke:none"
         id="path3059"
         inkscape:connector-curvature="0" />
    </g>
    <g
       id="g3061"
       transform="matrix(5.62443,0,0,-5.62443,788.19842,266.6153)">
      <path
         d="m 0,0 c -0.329,0 -1.406,0.181 -1.945,0.779 -0.181,0.21 -0.417,0.63 -0.417,0.959 -0.092,1.375 -0.062,4.099 -0.062,6.252 0,0.12 0.093,0.179 0.151,0.179 C -2.031,8.2 -1.676,8.2 -1.347,8.2 1.5,8.2 3.053,6.615 3.053,4.07 3.053,1.438 1.828,0 0,0 m -2.362,15.44 c 0.031,0.149 0.119,0.36 0.209,0.39 0.179,0.059 0.449,0.119 0.658,0.119 2.633,0 3.768,-1.586 3.768,-3.77 0,-1.167 -0.357,-1.975 -1.135,-2.453 C 0.84,9.546 0.031,9.455 -0.868,9.455 c -0.657,0 -1.137,0 -1.405,0.032 -0.058,0 -0.151,0.059 -0.151,0.148 0,1.975 0,4.937 0.062,5.805 M 3.023,9.188 c -0.059,0.03 -0.059,0.147 0,0.179 2.154,0.599 3.319,2.123 3.319,3.739 0,3.413 -3.05,4.099 -5.863,4.099 -0.808,0 -2.933,-0.09 -5.267,-0.09 -2.274,0 -3.559,0.09 -4.277,0.09 -0.091,-0.06 -0.118,-0.869 0,-1.018 0.48,-0.029 1.109,-0.12 1.555,-0.298 0.541,-0.179 0.75,-0.48 0.811,-1.287 0.057,-1.617 0.057,-3.38 0.057,-6.433 0,-3.349 0,-5.653 -0.057,-6.431 C -6.79,0.9 -7,0.539 -7.45,0.39 -7.927,0.212 -8.466,0.121 -9.366,0 c -0.147,-0.088 -0.118,-0.836 -0.03,-1.017 2.038,0 7.001,-0.148 8.322,-0.148 1.763,0 3.768,0.269 5.115,0.867 2.394,1.077 3.592,2.693 3.592,5.027 0,2.634 -1.917,3.92 -4.61,4.459"
         style="fill:#ffffff;fill-opacity:1;fill-rule:nonzero;stroke:none"
         id="path3063"
         inkscape:connector-curvature="0" />
    </g>
    <g
       id="g3065"
       transform="matrix(5.62443,0,0,-5.62443,269.63331,210.00316)">
      <path
         d="m 0,0 c -4.145,0.255 -4.528,0.351 -4.528,2.799 0,2.186 0.594,2.515 4.548,2.515 2.89,0 3.646,-0.088 3.646,-2.232 l 0,-0.813 4.334,0 0,0.813 c 0,5.834 -3.876,5.834 -7.98,5.834 -4.768,0 -8.885,0 -8.885,-6.117 0,-5.928 3.326,-6.116 7.537,-6.355 0.254,-0.014 0.514,-0.028 0.777,-0.045 0.408,-0.022 0.792,-0.036 1.149,-0.046 2.397,-0.078 3.49,-0.114 3.49,-2.612 0,-2.393 -0.478,-2.996 -4.068,-2.996 -3.837,0 -4.661,0.214 -4.661,2.46 l 0,1.125 -4.335,0 0,-1.125 c 0,-2.72 0.806,-4.391 2.535,-5.258 1.483,-0.746 3.438,-0.803 5.842,-0.803 l 0.619,0 c 5.711,0 8.403,0.651 8.403,6.597 C 8.423,-0.756 6.539,-0.396 0,0"
         style="fill:#ffffff;fill-opacity:1;fill-rule:nonzero;stroke:none"
         id="path3067"
         inkscape:connector-curvature="0" />
    </g>
    <g
       id="g3069"
       transform="matrix(5.62443,0,0,-5.62443,351.49743,277.16111)">
      <path
         d="m 0,0 0,-5.979 c 0,-0.601 -0.49,-1.09 -1.09,-1.09 l -28.029,0 c -0.601,0 -1.089,0.489 -1.089,1.09 l 0,30.807 c 0,0.602 0.488,1.09 1.089,1.09 l 28.029,0 c 0.6,0 1.09,-0.488 1.09,-1.09 l 0,-5.434 0.709,0.346 0,5.088 c 0,0.992 -0.807,1.8 -1.799,1.8 l -28.029,0 c -0.992,0 -1.8,-0.808 -1.8,-1.8 l 0,-30.807 c 0,-0.996 0.808,-1.803 1.8,-1.803 l 28.029,0 c 0.992,0 1.799,0.807 1.799,1.803 l 0,5.633 L 0,0 z"
         style="fill:#ffffff;fill-opacity:1;fill-rule:nonzero;stroke:none"
         id="path3071"
         inkscape:connector-curvature="0" />
    </g>
    <g
       id="g3073"
       transform="matrix(5.62443,0,0,-5.62443,1027.4729,172.527)">
      <path
         d="m 0,0 c -0.029,0.017 -0.075,0.024 -0.139,0.024 l -0.099,0 0,-0.234 0.104,0 c 0.05,0 0.085,0.005 0.11,0.016 0.043,0.016 0.067,0.05 0.067,0.1 C 0.043,-0.048 0.027,-0.018 0,0 m -0.125,0.101 c 0.08,0 0.141,-0.008 0.178,-0.023 0.066,-0.028 0.099,-0.083 0.099,-0.163 0,-0.059 -0.02,-0.1 -0.062,-0.127 -0.023,-0.014 -0.054,-0.024 -0.093,-0.031 0.05,-0.008 0.088,-0.028 0.11,-0.065 0.025,-0.032 0.036,-0.065 0.036,-0.098 l 0,-0.045 c 0,-0.017 0.002,-0.031 0.002,-0.048 0.002,-0.02 0.002,-0.029 0.003,-0.034 l 0.006,-0.008 -0.107,0 c 0,0 0,0.004 -0.003,0.006 l 0,0.007 -0.001,0.02 0,0.05 c 0,0.074 -0.021,0.125 -0.063,0.149 -0.025,0.013 -0.066,0.021 -0.126,0.021 l -0.092,0 0,-0.253 -0.114,0 0,0.642 0.227,0 z m -0.347,0.033 c -0.096,-0.099 -0.146,-0.217 -0.146,-0.356 0,-0.14 0.05,-0.26 0.146,-0.36 0.098,-0.1 0.218,-0.149 0.359,-0.149 0.14,0 0.261,0.049 0.359,0.149 0.1,0.1 0.15,0.22 0.15,0.36 0,0.139 -0.05,0.257 -0.15,0.356 -0.099,0.097 -0.219,0.147 -0.359,0.147 -0.139,0 -0.259,-0.05 -0.359,-0.147 M 0.305,-0.638 C 0.189,-0.752 0.051,-0.81 -0.113,-0.81 c -0.163,0 -0.303,0.058 -0.416,0.172 -0.117,0.116 -0.172,0.252 -0.172,0.416 0,0.161 0.058,0.299 0.174,0.414 0.114,0.114 0.254,0.17 0.414,0.17 0.164,0 0.302,-0.056 0.418,-0.17 0.115,-0.115 0.173,-0.253 0.173,-0.414 0,-0.162 -0.058,-0.3 -0.173,-0.416"
         style="fill:#ffffff;fill-opacity:1;fill-rule:nonzero;stroke:none"
         id="path3075"
         inkscape:connector-curvature="0" />
    </g>
    <g
       id="g3077"
       transform="matrix(5.62443,0,0,-5.62443,839.29074,286.11407)">
      <path
         d="m 0,0 c -0.042,0.077 -0.093,0.138 -0.157,0.178 -0.066,0.042 -0.148,0.065 -0.249,0.065 -0.082,0 -0.156,-0.019 -0.222,-0.055 -0.063,-0.032 -0.12,-0.083 -0.163,-0.144 -0.046,-0.062 -0.079,-0.135 -0.102,-0.222 -0.024,-0.084 -0.035,-0.18 -0.035,-0.281 0,-0.1 0.011,-0.192 0.035,-0.277 0.023,-0.085 0.056,-0.16 0.103,-0.224 0.045,-0.062 0.1,-0.112 0.167,-0.15 0.063,-0.035 0.138,-0.053 0.221,-0.053 0.099,0 0.183,0.022 0.25,0.068 0.063,0.043 0.123,0.114 0.182,0.213 L 0.403,-1.104 C 0.327,-1.261 0.224,-1.385 0.089,-1.472 -0.046,-1.56 -0.215,-1.603 -0.416,-1.603 c -0.146,0 -0.275,0.028 -0.396,0.082 -0.119,0.053 -0.219,0.13 -0.304,0.229 -0.087,0.1 -0.152,0.218 -0.197,0.359 -0.047,0.141 -0.071,0.297 -0.071,0.474 0,0.167 0.024,0.323 0.072,0.462 0.049,0.141 0.117,0.261 0.205,0.361 0.085,0.1 0.187,0.179 0.307,0.235 0.122,0.056 0.256,0.084 0.4,0.084 0.104,0 0.197,-0.013 0.282,-0.037 C -0.033,0.622 0.041,0.586 0.108,0.545 0.174,0.502 0.231,0.45 0.281,0.39 0.332,0.329 0.374,0.264 0.41,0.191 L 0,0 z"
         style="fill:#ffffff;fill-opacity:1;fill-rule:nonzero;stroke:none"
         id="path3079"
         inkscape:connector-curvature="0" />
    </g>
    <g
       id="g3081"
       transform="matrix(5.62443,0,0,-5.62443,852.25339,288.45384)">
      <path
         d="m 0,0 c -0.034,0.032 -0.075,0.058 -0.116,0.077 -0.043,0.021 -0.089,0.03 -0.136,0.03 -0.042,0 -0.081,-0.005 -0.117,-0.015 -0.032,-0.011 -0.064,-0.03 -0.088,-0.059 -0.023,-0.024 -0.042,-0.061 -0.057,-0.11 -0.014,-0.044 -0.02,-0.106 -0.02,-0.175 l 0,-0.899 -0.438,0 0,1.661 0.438,0 0,-0.112 c 0.037,0.041 0.084,0.075 0.139,0.103 0.058,0.03 0.124,0.044 0.202,0.044 0.073,0 0.133,-0.012 0.185,-0.037 0.051,-0.024 0.092,-0.05 0.122,-0.08 L 0,0 z"
         style="fill:#ffffff;fill-opacity:1;fill-rule:nonzero;stroke:none"
         id="path3083"
         inkscape:connector-curvature="0" />
    </g>
    <g
       id="g3085"
       transform="matrix(5.62443,0,0,-5.62443,862.73845,290.26657)">
      <path
         d="M 0,0 C 0,0.127 -0.025,0.233 -0.076,0.321 -0.127,0.405 -0.205,0.449 -0.308,0.449 -0.417,0.449 -0.493,0.407 -0.543,0.321 -0.594,0.235 -0.618,0.13 -0.618,0 c 0,-0.131 0.024,-0.236 0.075,-0.321 0.05,-0.083 0.126,-0.125 0.235,-0.125 0.051,0 0.097,0.012 0.135,0.036 0.04,0.024 0.071,0.057 0.097,0.099 0.025,0.04 0.045,0.089 0.057,0.143 C -0.007,-0.114 0,-0.059 0,0 M 0.443,0 C 0.443,-0.127 0.424,-0.245 0.387,-0.351 0.349,-0.456 0.296,-0.547 0.23,-0.624 0.164,-0.699 0.083,-0.759 -0.009,-0.8 c -0.093,-0.044 -0.194,-0.064 -0.299,-0.064 -0.109,0 -0.211,0.02 -0.301,0.064 -0.09,0.041 -0.17,0.101 -0.238,0.176 -0.065,0.077 -0.118,0.168 -0.156,0.273 -0.038,0.106 -0.059,0.224 -0.059,0.351 0,0.126 0.021,0.243 0.059,0.349 0.038,0.107 0.091,0.198 0.156,0.277 0.068,0.075 0.148,0.136 0.238,0.177 0.09,0.041 0.192,0.064 0.301,0.064 0.105,0 0.206,-0.023 0.299,-0.064 C 0.083,0.762 0.164,0.701 0.23,0.626 0.296,0.547 0.349,0.456 0.387,0.349 0.424,0.243 0.443,0.126 0.443,0"
         style="fill:#ffffff;fill-opacity:1;fill-rule:nonzero;stroke:none"
         id="path3087"
         inkscape:connector-curvature="0" />
    </g>
    <g
       id="g3089"
       transform="matrix(5.62443,0,0,-5.62443,877.46433,292.21096)">
      <path
         d="m 0,0 c 0,-0.094 -0.02,-0.175 -0.055,-0.241 -0.036,-0.066 -0.085,-0.122 -0.146,-0.161 -0.06,-0.041 -0.134,-0.074 -0.214,-0.089 -0.083,-0.019 -0.169,-0.028 -0.263,-0.028 -0.134,0 -0.259,0.017 -0.381,0.052 -0.122,0.036 -0.228,0.083 -0.315,0.142 l 0.145,0.333 c 0.09,-0.05 0.18,-0.087 0.273,-0.114 0.094,-0.028 0.195,-0.04 0.303,-0.04 0.087,0 0.145,0.011 0.175,0.034 0.032,0.02 0.046,0.051 0.046,0.092 0,0.041 -0.016,0.071 -0.05,0.093 -0.037,0.024 -0.101,0.049 -0.194,0.076 -0.099,0.029 -0.188,0.059 -0.269,0.09 -0.083,0.032 -0.151,0.067 -0.207,0.109 -0.058,0.041 -0.102,0.09 -0.133,0.149 -0.03,0.06 -0.046,0.134 -0.046,0.221 0,0.088 0.017,0.161 0.05,0.223 0.032,0.062 0.078,0.115 0.137,0.155 0.06,0.041 0.13,0.069 0.211,0.089 0.081,0.018 0.169,0.028 0.268,0.028 0.106,0 0.211,-0.016 0.317,-0.045 0.11,-0.03 0.208,-0.068 0.295,-0.117 L -0.192,0.705 c -0.081,0.046 -0.164,0.08 -0.252,0.101 -0.084,0.022 -0.16,0.032 -0.232,0.032 -0.088,0 -0.146,-0.009 -0.178,-0.026 -0.032,-0.017 -0.045,-0.043 -0.045,-0.08 0,-0.018 0.004,-0.032 0.012,-0.046 0.008,-0.013 0.025,-0.027 0.051,-0.042 0.022,-0.013 0.057,-0.028 0.102,-0.046 0.046,-0.017 0.105,-0.036 0.178,-0.06 C -0.481,0.514 -0.41,0.485 -0.343,0.459 -0.276,0.433 -0.216,0.397 -0.167,0.358 -0.115,0.318 -0.075,0.27 -0.044,0.211 -0.016,0.152 0,0.082 0,0"
         style="fill:#ffffff;fill-opacity:1;fill-rule:nonzero;stroke:none"
         id="path3091"
         inkscape:connector-curvature="0" />
    </g>
    <g
       id="g3093"
       transform="matrix(5.62443,0,0,-5.62443,889.91061,292.21096)">
      <path
         d="m 0,0 c 0,-0.094 -0.017,-0.175 -0.053,-0.241 -0.036,-0.066 -0.084,-0.122 -0.145,-0.161 -0.061,-0.041 -0.133,-0.074 -0.217,-0.089 -0.08,-0.019 -0.169,-0.028 -0.262,-0.028 -0.133,0 -0.26,0.017 -0.381,0.052 -0.12,0.036 -0.225,0.083 -0.316,0.142 l 0.145,0.333 c 0.09,-0.05 0.181,-0.087 0.276,-0.114 0.094,-0.028 0.195,-0.04 0.301,-0.04 0.088,0 0.147,0.011 0.176,0.034 0.032,0.02 0.047,0.051 0.047,0.092 0,0.041 -0.017,0.071 -0.053,0.093 -0.036,0.024 -0.097,0.049 -0.191,0.076 -0.099,0.029 -0.188,0.059 -0.272,0.09 -0.08,0.032 -0.149,0.067 -0.207,0.109 -0.056,0.041 -0.102,0.09 -0.129,0.149 -0.031,0.06 -0.048,0.134 -0.048,0.221 0,0.088 0.017,0.161 0.05,0.223 0.033,0.062 0.077,0.115 0.139,0.155 0.056,0.041 0.127,0.069 0.208,0.089 0.083,0.018 0.169,0.028 0.268,0.028 0.105,0 0.213,-0.016 0.32,-0.045 C -0.236,1.138 -0.138,1.1 -0.05,1.051 L -0.188,0.705 c -0.083,0.046 -0.165,0.08 -0.252,0.101 -0.085,0.022 -0.164,0.032 -0.233,0.032 -0.09,0 -0.149,-0.009 -0.177,-0.026 -0.033,-0.017 -0.049,-0.043 -0.049,-0.08 0,-0.018 0.006,-0.032 0.012,-0.046 0.01,-0.013 0.028,-0.027 0.051,-0.042 0.024,-0.013 0.06,-0.028 0.106,-0.046 0.043,-0.017 0.103,-0.036 0.176,-0.06 0.075,-0.024 0.148,-0.053 0.213,-0.079 0.068,-0.026 0.126,-0.062 0.178,-0.101 0.05,-0.04 0.088,-0.088 0.121,-0.147 C -0.016,0.152 0,0.082 0,0"
         style="fill:#ffffff;fill-opacity:1;fill-rule:nonzero;stroke:none"
         id="path3095"
         inkscape:connector-curvature="0" />
    </g>
    <g
       id="g3097"
       transform="matrix(5.62443,0,0,-5.62443,903.62581,294.92981)">
      <path
         d="M 0,0 -0.364,0 -0.528,0.65 C -0.537,0.684 -0.548,0.717 -0.554,0.757 -0.562,0.794 -0.571,0.831 -0.58,0.865 -0.589,0.903 -0.597,0.936 -0.604,0.967 -0.611,0.999 -0.615,1.025 -0.617,1.045 -0.621,1.025 -0.629,0.999 -0.634,0.967 -0.641,0.936 -0.646,0.903 -0.655,0.865 -0.663,0.831 -0.676,0.794 -0.68,0.757 -0.689,0.717 -0.698,0.684 -0.706,0.65 L -0.869,0 l -0.366,0 -0.479,1.661 0.445,0 0.147,-0.612 c 0.005,-0.034 0.012,-0.067 0.021,-0.103 0.006,-0.037 0.015,-0.071 0.023,-0.107 0.007,-0.033 0.013,-0.066 0.018,-0.098 0.005,-0.03 0.011,-0.055 0.016,-0.074 0.007,0.041 0.019,0.1 0.035,0.172 0.019,0.073 0.034,0.143 0.051,0.21 l 0.166,0.612 0.36,0 0.166,-0.612 c 0.016,-0.067 0.034,-0.137 0.052,-0.21 0.019,-0.072 0.029,-0.131 0.035,-0.172 0.003,0.019 0.007,0.044 0.013,0.074 0.007,0.032 0.015,0.065 0.02,0.098 0.009,0.036 0.017,0.07 0.026,0.107 0.009,0.036 0.014,0.069 0.022,0.103 l 0.146,0.612 0.43,0 L 0,0 z"
         style="fill:#ffffff;fill-opacity:1;fill-rule:nonzero;stroke:none"
         id="path3099"
         inkscape:connector-curvature="0" />
    </g>
    <g
       id="g3101"
       transform="matrix(5.62443,0,0,-5.62443,916.19807,290.26657)">
      <path
         d="M 0,0 C 0,0.127 -0.025,0.233 -0.075,0.321 -0.126,0.405 -0.203,0.449 -0.31,0.449 -0.416,0.449 -0.492,0.407 -0.542,0.321 -0.592,0.235 -0.616,0.13 -0.616,0 c 0,-0.131 0.024,-0.236 0.074,-0.321 0.05,-0.083 0.126,-0.125 0.232,-0.125 0.054,0 0.099,0.012 0.139,0.036 0.039,0.024 0.07,0.057 0.096,0.099 0.026,0.04 0.045,0.089 0.058,0.143 C -0.006,-0.114 0,-0.059 0,0 M 0.444,0 C 0.444,-0.127 0.425,-0.245 0.386,-0.351 0.348,-0.456 0.297,-0.547 0.231,-0.624 0.165,-0.699 0.084,-0.759 -0.01,-0.8 c -0.091,-0.044 -0.192,-0.064 -0.3,-0.064 -0.108,0 -0.208,0.02 -0.299,0.064 -0.089,0.041 -0.17,0.101 -0.236,0.176 -0.067,0.077 -0.119,0.168 -0.156,0.273 -0.038,0.106 -0.059,0.224 -0.059,0.351 0,0.126 0.021,0.243 0.059,0.349 0.037,0.107 0.089,0.198 0.156,0.277 0.066,0.075 0.147,0.136 0.236,0.177 0.091,0.041 0.191,0.064 0.299,0.064 0.108,0 0.209,-0.023 0.3,-0.064 C 0.084,0.762 0.165,0.701 0.231,0.626 0.297,0.547 0.348,0.456 0.386,0.349 0.425,0.243 0.444,0.126 0.444,0"
         style="fill:#ffffff;fill-opacity:1;fill-rule:nonzero;stroke:none"
         id="path3103"
         inkscape:connector-curvature="0" />
    </g>
    <g
       id="g3105"
       transform="matrix(5.62443,0,0,-5.62443,929.18263,288.45384)">
      <path
         d="m 0,0 c -0.038,0.032 -0.075,0.058 -0.117,0.077 -0.043,0.021 -0.089,0.03 -0.136,0.03 -0.045,0 -0.08,-0.005 -0.116,-0.015 -0.035,-0.011 -0.064,-0.03 -0.089,-0.059 -0.025,-0.024 -0.043,-0.061 -0.056,-0.11 -0.015,-0.044 -0.02,-0.106 -0.02,-0.175 l 0,-0.899 -0.438,0 0,1.661 0.438,0 0,-0.112 c 0.037,0.041 0.085,0.075 0.139,0.103 0.057,0.03 0.123,0.044 0.202,0.044 0.07,0 0.132,-0.012 0.184,-0.037 0.052,-0.024 0.093,-0.05 0.122,-0.08 L 0,0 z"
         style="fill:#ffffff;fill-opacity:1;fill-rule:nonzero;stroke:none"
         id="path3107"
         inkscape:connector-curvature="0" />
    </g>
    <g
       id="g3109"
       transform="matrix(5.62443,0,0,-5.62443,939.29986,288.50333)">
      <path
         d="m 0,0 c -0.069,0.094 -0.167,0.143 -0.293,0.143 -0.173,0 -0.26,-0.142 -0.26,-0.425 0,-0.171 0.025,-0.295 0.075,-0.369 0.054,-0.078 0.124,-0.117 0.211,-0.117 0.067,0 0.121,0.015 0.159,0.039 0.043,0.026 0.077,0.059 0.108,0.102 L 0,0 z m 0,-1.143 0,0.104 c -0.041,-0.035 -0.091,-0.067 -0.146,-0.096 -0.057,-0.028 -0.125,-0.043 -0.205,-0.043 -0.087,0 -0.17,0.017 -0.249,0.05 -0.08,0.035 -0.147,0.087 -0.206,0.162 -0.059,0.071 -0.105,0.163 -0.14,0.274 -0.033,0.111 -0.049,0.244 -0.049,0.401 0,0.124 0.013,0.238 0.041,0.342 0.028,0.101 0.072,0.192 0.126,0.266 0.055,0.075 0.122,0.132 0.203,0.174 0.08,0.041 0.172,0.063 0.274,0.063 0.075,0 0.142,-0.012 0.202,-0.037 C -0.09,0.489 -0.039,0.458 0,0.424 l 0,0.521 0.437,0.219 0,-2.307 -0.437,0 z"
         style="fill:#ffffff;fill-opacity:1;fill-rule:nonzero;stroke:none"
         id="path3111"
         inkscape:connector-curvature="0" />
    </g>
    <g
       id="g3113"
       transform="matrix(5.62443,0,0,-5.62443,965.40117,292.23849)">
      <path
         d="m 0,0 c -0.045,-0.111 -0.107,-0.207 -0.186,-0.281 -0.081,-0.077 -0.173,-0.135 -0.284,-0.175 -0.107,-0.039 -0.225,-0.058 -0.354,-0.058 -0.146,0 -0.277,0.028 -0.396,0.081 -0.117,0.054 -0.218,0.131 -0.302,0.23 -0.089,0.099 -0.155,0.218 -0.202,0.359 -0.046,0.141 -0.069,0.297 -0.069,0.474 0,0.167 0.025,0.323 0.073,0.462 0.05,0.14 0.116,0.261 0.202,0.361 0.087,0.1 0.19,0.179 0.311,0.234 0.121,0.057 0.253,0.084 0.398,0.084 0.114,0 0.216,-0.012 0.302,-0.038 C -0.42,1.709 -0.341,1.672 -0.273,1.621 -0.206,1.574 -0.146,1.517 -0.1,1.445 -0.049,1.377 -0.005,1.3 0.03,1.218 L -0.39,1.044 c -0.021,0.039 -0.044,0.075 -0.068,0.113 -0.025,0.036 -0.054,0.068 -0.086,0.092 -0.033,0.024 -0.073,0.045 -0.115,0.06 -0.044,0.014 -0.096,0.023 -0.155,0.023 -0.082,0 -0.156,-0.02 -0.221,-0.055 C -1.101,1.245 -1.156,1.194 -1.199,1.133 -1.245,1.071 -1.278,0.998 -1.303,0.911 -1.324,0.827 -1.337,0.73 -1.337,0.63 c 0,-0.102 0.013,-0.196 0.034,-0.284 0.025,-0.085 0.059,-0.159 0.104,-0.224 0.046,-0.061 0.101,-0.113 0.166,-0.148 0.066,-0.036 0.138,-0.055 0.221,-0.055 0.078,0 0.142,0.009 0.193,0.025 0.053,0.019 0.098,0.041 0.129,0.071 0.032,0.028 0.057,0.065 0.078,0.106 0.016,0.041 0.028,0.086 0.034,0.134 l -0.352,0 0,0.418 0.794,0 0,-0.291 C 0.064,0.236 0.044,0.109 0,0"
         style="fill:#ffffff;fill-opacity:1;fill-rule:nonzero;stroke:none"
         id="path3115"
         inkscape:connector-curvature="0" />
    </g>
    <g
       id="g3117"
       transform="matrix(5.62443,0,0,-5.62443,976.25407,291.01349)">
      <path
         d="m 0,0 c -0.038,0.022 -0.08,0.04 -0.124,0.052 -0.043,0.01 -0.103,0.016 -0.182,0.016 -0.081,0 -0.144,-0.016 -0.188,-0.052 -0.041,-0.037 -0.065,-0.088 -0.065,-0.156 0,-0.058 0.019,-0.111 0.059,-0.155 0.038,-0.044 0.104,-0.067 0.194,-0.067 0.073,0 0.135,0.015 0.189,0.047 0.054,0.029 0.094,0.064 0.117,0.106 L 0,0 z m 0,-0.696 0,0.109 c -0.04,-0.041 -0.095,-0.075 -0.157,-0.103 -0.068,-0.027 -0.138,-0.041 -0.216,-0.041 -0.08,0 -0.156,0.012 -0.228,0.035 -0.076,0.024 -0.141,0.062 -0.2,0.109 -0.056,0.049 -0.105,0.111 -0.14,0.185 -0.035,0.074 -0.054,0.162 -0.054,0.262 0,0.089 0.019,0.17 0.052,0.242 0.035,0.067 0.086,0.126 0.146,0.17 0.062,0.046 0.131,0.081 0.213,0.104 0.08,0.023 0.169,0.036 0.266,0.036 0.072,0 0.137,-0.009 0.185,-0.023 C -0.08,0.376 -0.036,0.361 0,0.344 L 0,0.427 C 0,0.487 -0.02,0.536 -0.059,0.576 -0.099,0.619 -0.157,0.64 -0.239,0.64 -0.288,0.64 -0.334,0.638 -0.372,0.633 -0.41,0.627 -0.448,0.621 -0.483,0.613 -0.52,0.604 -0.555,0.595 -0.584,0.579 -0.62,0.565 -0.655,0.549 -0.694,0.527 L -0.86,0.833 c 0.047,0.027 0.092,0.052 0.138,0.071 0.045,0.021 0.092,0.038 0.143,0.052 0.05,0.016 0.101,0.026 0.159,0.032 C -0.368,0.996 -0.306,1 -0.239,1 -0.135,1 -0.044,0.988 0.036,0.963 0.119,0.936 0.19,0.898 0.25,0.849 0.308,0.799 0.354,0.739 0.387,0.666 0.419,0.593 0.436,0.509 0.436,0.418 l 0,-1.114 -0.436,0 z"
         style="fill:#ffffff;fill-opacity:1;fill-rule:nonzero;stroke:none"
         id="path3119"
         inkscape:connector-curvature="0" />
    </g>
    <g
       id="g3121"
       transform="matrix(5.62443,0,0,-5.62443,995.04471,294.92981)">
      <path
         d="M 0,0 0,0.899 C 0,1.047 -0.021,1.147 -0.065,1.201 -0.109,1.257 -0.176,1.285 -0.266,1.285 -0.357,1.285 -0.424,1.257 -0.471,1.203 -0.513,1.15 -0.534,1.052 -0.534,0.908 l 0,-0.908 -0.438,0 0,0.899 c 0,0.148 -0.021,0.248 -0.064,0.302 -0.044,0.056 -0.11,0.084 -0.201,0.084 -0.092,0 -0.159,-0.028 -0.202,-0.082 C -1.484,1.15 -1.506,1.052 -1.506,0.908 l 0,-0.908 -0.437,0 0,1.661 0.437,0 0,-0.111 c 0.036,0.041 0.086,0.074 0.144,0.102 0.058,0.031 0.131,0.044 0.218,0.044 0.108,0 0.194,-0.015 0.265,-0.05 0.067,-0.033 0.135,-0.085 0.194,-0.162 0.058,0.059 0.126,0.108 0.206,0.15 0.079,0.041 0.185,0.062 0.324,0.062 0.106,0 0.196,-0.017 0.269,-0.053 C 0.189,1.609 0.252,1.558 0.3,1.491 0.347,1.425 0.382,1.344 0.403,1.252 0.425,1.158 0.437,1.052 0.437,0.936 L 0.437,0 0,0 z"
         style="fill:#ffffff;fill-opacity:1;fill-rule:nonzero;stroke:none"
         id="path3123"
         inkscape:connector-curvature="0" />
    </g>
    <g
       id="g3125"
       transform="matrix(5.62443,0,0,-5.62443,1008.1446,289.19568)">
      <path
         d="m 0,0 c -0.005,0.036 -0.013,0.074 -0.024,0.107 -0.013,0.037 -0.034,0.069 -0.058,0.095 -0.023,0.03 -0.053,0.053 -0.09,0.069 -0.036,0.017 -0.08,0.025 -0.127,0.025 -0.079,0 -0.145,-0.026 -0.192,-0.085 C -0.537,0.155 -0.563,0.082 -0.571,0 L 0,0 z m 0.426,-0.19 c 0,-0.032 0,-0.059 -0.004,-0.081 0,-0.024 -0.001,-0.041 -0.004,-0.059 l -0.997,0 c 0.004,-0.057 0.018,-0.106 0.038,-0.145 0.02,-0.041 0.048,-0.072 0.078,-0.097 0.034,-0.025 0.067,-0.041 0.107,-0.054 0.039,-0.013 0.079,-0.019 0.12,-0.019 0.06,0 0.116,0.012 0.163,0.034 0.049,0.02 0.091,0.049 0.12,0.085 l 0.31,-0.26 C 0.29,-0.873 0.203,-0.938 0.094,-0.983 c -0.109,-0.049 -0.218,-0.072 -0.33,-0.072 -0.12,0 -0.231,0.021 -0.325,0.063 -0.095,0.041 -0.176,0.098 -0.246,0.174 -0.066,0.074 -0.117,0.166 -0.155,0.271 -0.034,0.108 -0.056,0.226 -0.056,0.357 0,0.126 0.022,0.243 0.059,0.348 0.039,0.108 0.09,0.2 0.157,0.278 0.067,0.075 0.146,0.135 0.234,0.176 0.089,0.041 0.186,0.065 0.292,0.065 0.11,0 0.209,-0.024 0.297,-0.069 C 0.107,0.563 0.182,0.501 0.241,0.423 0.298,0.343 0.347,0.25 0.377,0.145 0.408,0.038 0.426,-0.073 0.426,-0.19"
         style="fill:#ffffff;fill-opacity:1;fill-rule:nonzero;stroke:none"
         id="path3127"
         inkscape:connector-curvature="0" />
    </g>
    <g
       id="g3129"
       transform="matrix(5.62443,0,0,-5.62443,1027.352,182.22127)">
      <path
         d="m 0,0 c 0,-0.068 0.01,-0.121 0.028,-0.159 0.03,-0.06 0.083,-0.089 0.16,-0.089 0.078,0 0.126,0.03 0.154,0.095 0.014,0.036 0.022,0.087 0.022,0.158 l 0,0.288 L 0,0.293 0,0 z m -0.541,-0.054 c 0,-0.099 0.028,-0.17 0.085,-0.211 0.035,-0.027 0.079,-0.039 0.129,-0.039 0.085,0 0.142,0.036 0.174,0.114 0.016,0.042 0.024,0.095 0.024,0.163 l 0,0.32 -0.412,0 0,-0.347 z m 1.038,0.501 0,-0.507 c 0,-0.138 -0.042,-0.238 -0.122,-0.295 -0.05,-0.035 -0.105,-0.052 -0.168,-0.052 -0.075,0 -0.138,0.02 -0.182,0.063 -0.025,0.021 -0.048,0.054 -0.071,0.094 -0.023,-0.061 -0.049,-0.104 -0.076,-0.135 -0.053,-0.052 -0.122,-0.079 -0.214,-0.079 -0.074,0 -0.143,0.023 -0.205,0.071 -0.092,0.073 -0.136,0.186 -0.136,0.341 l 0,0.499 1.174,0 z"
         style="fill:#ffffff;fill-opacity:1;fill-rule:nonzero;stroke:none"
         id="path3131"
         inkscape:connector-curvature="0" />
    </g>
    <g
       id="g3133"
       transform="matrix(5.62443,0,0,-5.62443,1027.1214,188.88397)">
      <path
         d="m 0,0 c 0,-0.072 0.014,-0.13 0.046,-0.172 0.028,-0.044 0.082,-0.064 0.161,-0.064 0.083,0 0.14,0.029 0.171,0.09 0.014,0.03 0.023,0.072 0.023,0.125 l 0,0.379 L 0,0.358 0,0 z m 0.538,0.518 0,-0.534 c 0,-0.09 -0.013,-0.162 -0.041,-0.217 -0.048,-0.111 -0.142,-0.164 -0.276,-0.164 -0.071,0 -0.126,0.014 -0.172,0.043 -0.045,0.029 -0.081,0.071 -0.108,0.122 -0.017,-0.045 -0.043,-0.08 -0.075,-0.103 -0.029,-0.023 -0.077,-0.036 -0.146,-0.04 l -0.157,-0.006 c -0.046,0 -0.08,-0.005 -0.101,-0.011 -0.038,-0.009 -0.063,-0.026 -0.071,-0.051 l -0.027,0 0,0.197 c 0.01,0.003 0.023,0.008 0.038,0.013 0.015,0.001 0.046,0.004 0.092,0.004 l 0.196,0.011 c 0.079,0.004 0.129,0.031 0.156,0.084 0.015,0.03 0.02,0.076 0.02,0.141 l 0,0.351 -0.502,0 0,0.16 1.174,0 z"
         style="fill:#ffffff;fill-opacity:1;fill-rule:nonzero;stroke:none"
         id="path3135"
         inkscape:connector-curvature="0" />
    </g>
    <g
       id="g3137"
       transform="matrix(5.62443,0,0,-5.62443,1026.2423,195.94209)">
      <path
         d="M 0,0 0.52,0.183 0,0.371 0,0 z m 0.694,0.266 0,-0.181 -1.173,-0.427 0,0.176 0.35,0.122 0,0.46 -0.35,0.129 0,0.161 1.173,-0.44 z"
         style="fill:#ffffff;fill-opacity:1;fill-rule:nonzero;stroke:none"
         id="path3139"
         inkscape:connector-curvature="0" />
    </g>
    <g
       id="g3141"
       transform="matrix(5.62443,0,0,-5.62443,1030.1479,198.66656)">
      <path
         d="m 0,0 0,-0.188 -0.949,-0.584 0.949,0 0,-0.154 -1.174,0 0,0.18 0.947,0.593 -0.947,0 0,0.153 L 0,0 z"
         style="fill:#ffffff;fill-opacity:1;fill-rule:nonzero;stroke:none"
         id="path3143"
         inkscape:connector-curvature="0" />
    </g>
    <g
       id="g3145"
       transform="matrix(5.62443,0,0,-5.62443,1024.3092,207.82817)">
      <path
         d="m 0,0 c 0,-0.053 0.004,-0.096 0.017,-0.13 0.02,-0.059 0.059,-0.109 0.122,-0.149 0.043,-0.031 0.105,-0.051 0.18,-0.066 0.043,-0.009 0.085,-0.012 0.122,-0.012 0.145,0 0.26,0.029 0.34,0.086 0.08,0.056 0.12,0.147 0.12,0.271 l 0,0.278 L 0,0.278 0,0 z m 1.038,0.437 0,-0.469 c 0,-0.157 -0.056,-0.281 -0.172,-0.371 -0.104,-0.076 -0.234,-0.116 -0.398,-0.116 -0.124,0 -0.237,0.023 -0.337,0.069 -0.179,0.08 -0.267,0.221 -0.267,0.42 l 0,0.467 1.174,0 z"
         style="fill:#ffffff;fill-opacity:1;fill-rule:nonzero;stroke:none"
         id="path3147"
         inkscape:connector-curvature="0" />
    </g>
  </g>
</svg>
